<svg width="59" height="65" viewBox="0 0 59 65" fill="none" xmlns="http://www.w3.org/2000/svg">
<path d="M20.4758 19.7827L24.8757 30.1925C26.2426 33.4263 28.7004 36.0782 31.8212 37.6863L40.9516 42.3914L31.8212 47.0965C28.7004 48.7047 26.2426 51.3566 24.8757 54.5903L20.4758 65.0001L16.0759 54.5903C14.709 51.3566 12.2512 48.7047 9.13044 47.0965L0 42.3914L9.13045 37.6863C12.2512 36.0782 14.709 33.4263 16.0759 30.1925L20.4758 19.7827Z" fill="#FF00B8"/>
<path d="M19.4775 40.6663C19.7993 39.7098 21.1522 39.7098 21.474 40.6663C21.5717 40.9569 21.7912 41.1904 22.0751 41.306L22.1176 41.3233C23.0754 41.7132 23.0754 43.0695 22.1176 43.4594L22.0751 43.4767C21.7912 43.5923 21.5717 43.8258 21.474 44.1163C21.1522 45.0729 19.7993 45.0729 19.4775 44.1163C19.3798 43.8258 19.1603 43.5923 18.8764 43.4767L18.8339 43.4594C17.8761 43.0695 17.8761 41.7132 18.8339 41.3233L18.8764 41.306C19.1603 41.1904 19.3798 40.9569 19.4775 40.6663Z" fill="#FF00B8"/>
<path d="M38.2324 0L41.1063 8.57555C41.4762 9.67926 42.3085 10.5671 43.3861 11.0074L51.0298 14.1304L43.3861 17.2535C42.3085 17.6938 41.4762 18.5816 41.1063 19.6853L38.2324 28.2609L35.3586 19.6853C34.9887 18.5816 34.1563 17.6938 33.0788 17.2535L25.4351 14.1304L33.0788 11.0074C34.1563 10.5671 34.9887 9.67927 35.3586 8.57555L38.2324 0Z" fill="#FF00B8"/>
<path d="M37.6086 13.0523C37.8098 12.4545 38.6553 12.4545 38.8564 13.0523C38.9175 13.2339 39.0547 13.3799 39.2321 13.4521L39.2587 13.4629C39.8573 13.7066 39.8573 14.5543 39.2587 14.798L39.2321 14.8088C39.0547 14.881 38.9175 15.027 38.8564 15.2086C38.6553 15.8064 37.8098 15.8064 37.6086 15.2086C37.5476 15.027 37.4104 14.881 37.2329 14.8088L37.2064 14.798C36.6077 14.5543 36.6077 13.7066 37.2064 13.4629L37.2329 13.4521C37.4104 13.3799 37.5476 13.2339 37.6086 13.0523Z" fill="#FF00B8"/>
<path d="M51.6165 28.2609L52.5406 32.7907C52.6947 33.5461 53.2693 34.1457 54.0175 34.3318L58.0151 35.3261L54.0175 36.3204C53.2693 36.5065 52.6947 37.1061 52.5406 37.8615L51.6165 42.3913L50.6923 37.8615C50.5382 37.1061 49.9636 36.5065 49.2154 36.3204L45.2178 35.3261L49.2154 34.3318C49.9636 34.1457 50.5382 33.5461 50.6923 32.7907L51.6165 28.2609Z" fill="white"/>
<path d="M51.3048 34.7872C51.4054 34.4883 51.8281 34.4883 51.9287 34.7872C51.9592 34.878 52.0278 34.951 52.1166 34.9871L52.1298 34.9925C52.4292 35.1144 52.4292 35.5382 52.1298 35.6601L52.1166 35.6655C52.0278 35.7016 51.9592 35.7746 51.9287 35.8654C51.8281 36.1643 51.4054 36.1643 51.3048 35.8654C51.2743 35.7746 51.2057 35.7016 51.117 35.6655L51.1037 35.6601C50.8043 35.5382 50.8043 35.1144 51.1037 34.9925L51.117 34.9871C51.2057 34.951 51.2743 34.878 51.3048 34.7872Z" fill="white"/>
</svg>
